<?xml version="1.0" standalone="no"?><!DOCTYPE svg PUBLIC "-//W3C//DTD SVG 1.1//EN" "http://www.w3.org/Graphics/SVG/1.1/DTD/svg11.dtd"><svg t="1598681695558" class="icon" viewBox="0 0 1024 1024" version="1.1" xmlns="http://www.w3.org/2000/svg" p-id="1254" width="24" height="24" xmlns:xlink="http://www.w3.org/1999/xlink"><defs><style type="text/css"></style></defs><path d="M736.95 523.19c-35.19-6.82-18.1-25.72-18.1-25.72s34.45-56.79-6.79-98c-51.14-51.14-175.33 6.49-175.33 6.49-47.43 14.75-34.86-6.71-28.13-43.19 0-43-14.74-115.74-141.12-72.75-126.25 43.16-234.65 194.51-234.65 194.51-75.37 100.62-65.4 178.34-65.4 178.34 18.83 171.63 201.2 218.74 343 229.92 149.24 11.67 350.63-51.46 411.69-181.18 61.08-129.94-49.89-181.35-85.2-188.42M421.5 844.38c-148.13 6.93-267.88-67.38-267.88-166.2S273.37 499.82 421.5 493s268.24 54.25 268.24 153-120 191.64-268.24 198.38" p-id="1255" fill="#d7dae0"></path><path d="M392 558.17c-149 17.45-131.78 157-131.78 157s-1.51 44.21 40 66.71c87.18 47.2 176.92 18.62 222.3-39.94S541.17 540.86 392 558.17M354.39 754c-27.82 3.27-50.24-12.76-50.24-36.05s19.92-47.42 47.74-50.32c32-3 52.77 15.35 52.77 38.62s-22.56 44.6-50.27 47.75m87.83-74.78c-9.43 7-21 6-26-2.41-5.21-8.26-3.26-21.46 6.3-28.39 11-8.19 22.51-5.84 27.47 2.39 5 8.43 1.43 21.09-7.77 28.4M952.6 445a36 36 0 0 0 1.18-8.56 268 268 0 0 0 3.22-39.92c0-147-119.6-266.68-266.64-266.68a36.87 36.87 0 1 0 0 73.74c106.38 0 192.91 86.56 192.91 192.94a194.51 194.51 0 0 1-3.2 35.28l0.43 0.07a36.7 36.7 0 0 0 72 13.36 0.56 0.56 0 0 1 0-0.23" p-id="1256" fill="#d7dae0"></path><path d="M837.17 410.36c0.42-4.58 0.88-9.15 0.88-13.84 0-81.45-66.24-147.69-147.68-147.69a30.72 30.72 0 1 0 0 61.44 86.34 86.34 0 0 1 86.23 86.25 88.46 88.46 0 0 1-0.68 11.08l0.72 0.1c-0.14 1.22-0.72 2.31-0.72 3.57A30.71 30.71 0 0 0 806.63 442c15.52 0 27.82-11.7 29.9-26.67l0.32 0.07c0.08-0.77 0-1.6 0.13-2.36 0-0.6 0.37-1.13 0.37-1.76 0-0.33-0.19-0.6-0.19-0.91" p-id="1257" fill="#d7dae0"></path></svg>