<?xml version="1.0" standalone="no"?><!DOCTYPE svg PUBLIC "-//W3C//DTD SVG 1.1//EN" "http://www.w3.org/Graphics/SVG/1.1/DTD/svg11.dtd"><svg t="1598764588678" class="icon" viewBox="0 0 1024 1024" version="1.1" xmlns="http://www.w3.org/2000/svg" p-id="5280" xmlns:xlink="http://www.w3.org/1999/xlink" width="24" height="24"><defs><style type="text/css"></style></defs><path d="M896.2 159.9c0-2.1-0.2-4.1-0.6-6v-0.1l-0.3-1.2c0-0.1-0.1-0.3-0.1-0.4-0.1-0.3-0.1-0.5-0.2-0.8-0.1-0.3-0.2-0.6-0.2-0.8 0-0.1-0.1-0.3-0.1-0.4-1.5-4.7-4.1-9.1-7.8-12.8-1.8-1.8-3.9-3.4-6-4.7 0 0-0.1 0-0.1-0.1-0.2-0.1-0.5-0.3-0.7-0.4-4.7-2.7-10.1-4.2-15.8-4.2h-192c-17.6 0-32 14.4-32 32s14.4 32 32 32H787L585.7 393.2c-12.4 12.4-12.4 32.8 0 45.3 12.4 12.4 32.8 12.4 45.3 0l201.2-201.2v115c0 17.6 14.4 32 32 32s32-14.4 32-32v-192-0.4z" p-id="5281" fill="#d7dae0"></path><path d="M800.2 405.6c-17.7 0-32 14.3-32 32v394.7H192V256h394.8c17.7 0 32-14.3 32-32s-14.3-32-32-32H160c-17.7 0-32 14.3-32 32v640.2c0 17.7 14.3 32 32 32h640.2c17.7 0 32-14.3 32-32V437.6c0-17.7-14.3-32-32-32z" p-id="5282" fill="#d7dae0"></path></svg>